<svg width="66" height="66" xmlns="http://www.w3.org/2000/svg" xmlns:xlink="http://www.w3.org/1999/xlink" xml:space="preserve" overflow="hidden"><defs><clipPath id="clip0"><rect x="92" y="83" width="66" height="66"/></clipPath></defs><g clip-path="url(#clip0)" transform="translate(-92 -83)"><path d="M99.2531 141.438C101.132 143.317 104.18 143.317 106.059 141.438 106.059 141.438 106.059 141.438 106.059 141.438L114.688 132.809C115.809 131.688 116.305 130.085 116.014 128.526L119.019 125.488C128.093 132.436 141.082 130.712 148.03 121.637 154.978 112.563 153.254 99.5745 144.18 92.6264 135.105 85.6784 122.117 87.4021 115.169 96.4764 109.484 103.9 109.484 114.214 115.169 121.637L112.13 124.676C110.571 124.386 108.969 124.882 107.847 126.003L99.2531 134.597C97.3641 136.467 97.3485 139.514 99.2183 141.403 99.2299 141.414 99.2414 141.426 99.2531 141.438ZM115.031 109.125C115.031 100.012 122.419 92.625 131.531 92.625 140.644 92.625 148.031 100.012 148.031 109.125 148.031 118.238 140.644 125.625 131.531 125.625 122.43 125.599 115.058 118.227 115.031 109.125Z"/><path d="M142.188 113.552 139.046 110.438C138.936 110.354 138.805 110.302 138.667 110.287L136.729 110.287C136.66 109.874 136.584 109.455 136.495 109.049L139.011 108.568C139.321 108.511 139.566 108.272 139.63 107.963L140.682 103.213C140.787 102.789 140.528 102.36 140.105 102.255 140.098 102.253 140.091 102.252 140.084 102.25 139.666 102.154 139.249 102.414 139.152 102.832 139.151 102.838 139.15 102.843 139.149 102.848L138.207 107.097 136.062 107.503C135.941 107.106 135.771 106.727 135.553 106.375L127.509 106.375C127.29 106.734 127.119 107.12 127.001 107.523L124.856 107.118 123.921 102.869C123.794 102.451 123.353 102.214 122.935 102.341 122.563 102.453 122.327 102.82 122.381 103.206L123.433 107.956C123.5 108.263 123.743 108.5 124.051 108.561L126.567 109.043C126.478 109.448 126.402 109.868 126.341 110.28L124.374 110.28C124.234 110.294 124.101 110.346 123.989 110.431L120.875 113.552C120.528 113.813 120.457 114.305 120.717 114.652 120.977 115 121.469 115.071 121.817 114.811L124.787 111.82 126.162 111.82C126.162 112.054 126.162 112.26 126.162 112.439 126.164 112.848 126.213 113.257 126.306 113.656L124.299 114.158C124.044 114.22 123.838 114.406 123.749 114.652L122.106 119.149C121.958 119.557 122.166 120.008 122.573 120.159 122.66 120.189 122.75 120.205 122.841 120.208 123.172 120.208 123.469 120.002 123.584 119.692L125.083 115.567 126.897 115.113C127.698 116.473 129.06 117.407 130.617 117.664L130.871 117.581 130.871 111.875C130.871 111.495 131.179 111.188 131.559 111.188 131.938 111.188 132.246 111.495 132.246 111.875L132.246 117.595 132.501 117.677C134.059 117.424 135.423 116.489 136.22 115.127L138.035 115.581 139.541 119.706C139.652 120.016 139.946 120.223 140.276 120.221 140.368 120.219 140.458 120.202 140.544 120.173 140.951 120.022 141.16 119.571 141.012 119.162L139.341 114.625C139.252 114.378 139.046 114.193 138.791 114.13L136.784 113.628C136.877 113.229 136.926 112.821 136.928 112.411 136.928 112.232 136.928 112.026 136.928 111.793L138.303 111.793 141.273 114.783C141.559 115.108 142.054 115.139 142.379 114.853 142.704 114.567 142.736 114.072 142.45 113.747 142.377 113.665 142.288 113.598 142.188 113.552Z"/><path d="M135.615 97.74C135.868 97.6137 135.975 97.309 135.856 97.0525 135.724 96.8049 135.423 96.7024 135.168 96.8187 134.506 97.1557 133.946 97.6637 133.546 98.29 133.255 98.7493 133.024 99.2436 132.858 99.7612 132.023 99.4312 131.094 99.4312 130.259 99.7612 130.099 99.2414 129.868 98.7463 129.572 98.29 129.173 97.6623 128.613 97.154 127.949 96.8187 127.695 96.6986 127.391 96.802 127.262 97.0525 127.138 97.307 127.242 97.6138 127.496 97.74 127.969 97.9911 128.369 98.3606 128.658 98.8125 128.943 99.2568 129.154 99.7444 129.283 100.256 128.058 101.241 127.364 102.742 127.406 104.312 127.408 104.542 127.424 104.772 127.454 105L135.608 105C135.638 104.772 135.654 104.542 135.656 104.312 135.689 102.751 134.995 101.263 133.779 100.284 133.909 99.7719 134.12 99.2843 134.405 98.84 134.703 98.3717 135.12 97.9918 135.615 97.74Z"/></g></svg>